<?xml version="1.0" standalone="no"?><!DOCTYPE svg PUBLIC "-//W3C//DTD SVG 1.1//EN" "http://www.w3.org/Graphics/SVG/1.1/DTD/svg11.dtd"><svg t="1670833000591" class="icon" viewBox="0 0 1024 1024" version="1.1" xmlns="http://www.w3.org/2000/svg" p-id="2917" xmlns:xlink="http://www.w3.org/1999/xlink" width="16" height="16"><path d="M808.53 442.25l-221.17-78.5-78.5-221.17a52 52 0 0 0-98 0l-78.5 221.17-221.17 78.5a52 52 0 0 0 0 98l221.17 78.49 78.49 221.17a52 52 0 0 0 98 0l78.5-221.17 221.17-78.49a52 52 0 0 0 0-98zM554.3 554.08a51.78 51.78 0 0 0-31.61 31.61l-62.83 177-62.86-177a51.78 51.78 0 0 0-31.61-31.61l-177-62.83 177-62.83A51.77 51.77 0 0 0 397 396.81l62.83-177 62.83 177a51.78 51.78 0 0 0 31.61 31.61l177 62.83z" p-id="2918" fill="#ffffff"></path><path d="M769.13 638.13l-126.79 44.61a36 36 0 1 0 23.9 67.92L793 706.05a36 36 0 0 0-23.89-67.92zM689 798.67l-85.44 30.06a36 36 0 1 0 23.9 67.92l85.44-30.06a36 36 0 1 0-23.9-67.92z" p-id="2919" fill="#ffffff"></path></svg>