<?xml version="1.0" standalone="no"?><!DOCTYPE svg PUBLIC "-//W3C//DTD SVG 1.1//EN" "http://www.w3.org/Graphics/SVG/1.1/DTD/svg11.dtd"><svg t="1671025470784" class="icon" viewBox="0 0 1024 1024" version="1.1" xmlns="http://www.w3.org/2000/svg" p-id="2015" xmlns:xlink="http://www.w3.org/1999/xlink" width="64" height="64"><path d="M512 512m-512 0a512 512 0 1 0 1024 0 512 512 0 1 0-1024 0Z" fill="#6CC09E" p-id="2016"></path><path d="M453.973 305.061l-46.854-76.575c-6.034-10.537-19.969-14.476-31.133-8.792-10.272 6.654-13.512 19.582-7.479 29.867l34.081 55.458 51.385 0.042zM639.376 249.717c5.9-10.273 2.685-23.099-7.469-29.788-5.357-2.745-11.666-3.365-17.504-1.716-5.855 1.65-10.759 5.432-13.637 10.514l-47.147 76.413 51.591 0.042 34.166-55.465z" fill="#FFFFFF" p-id="2017"></path><path d="M636.501 670.159c-0.084 53.688 24.641 104.545 67.246 138.361h-15.199l0.003 0.003h39.943c49.7 0 89.998-42.13 89.998-94.09v-222.46c-100.524 0.049-181.994 79.807-181.991 178.186z" fill="#FFFFFF" opacity=".4" p-id="2018"></path><path d="M791.309 344.488c-17.436-17.089-41.088-26.706-65.751-26.729H295.009c-24.698-0.025-48.401 9.574-65.873 26.663-17.461 17.095-27.267 40.29-27.24 64.46v308.606c0 24.154 9.812 47.329 27.276 64.4 17.463 17.071 41.151 26.654 65.84 26.632h408.735c-42.605-33.816-67.33-84.675-67.246-138.361-0.003-98.379 81.467-178.137 181.991-178.187h0.001v-83.091c0.023-24.138-9.757-47.304-27.184-64.393z m-340.37 336.196a15.204 15.204 0 0 1-15.005 0.052c-4.646-2.625-7.513-7.497-7.539-12.78V470.91c0.025-5.275 2.894-10.147 7.539-12.771a15.204 15.204 0 0 1 15.005 0.048l171.275 98.481c4.649 2.631 7.525 7.521 7.525 12.808 0 5.295-2.876 10.176-7.525 12.814l-171.275 98.394z" fill="#FFFFFF" p-id="2019"></path></svg>